<svg width="64" height="64" viewBox="0 0 64 64" fill="none" xmlns="http://www.w3.org/2000/svg">
  <!-- HARVICS Strategic Logo: White variant for dark backgrounds -->
  
  <circle cx="32" cy="32" r="6.18" fill="#C3A35E"/>
  
  <circle cx="32" cy="12" r="3" fill="#FFFFFF"/>
  <circle cx="44.1" cy="15.3" r="3" fill="#FFFFFF"/>
  <circle cx="49.5" cy="25.4" r="3" fill="#FFFFFF"/>
  <circle cx="46.8" cy="37.2" r="3" fill="#FFFFFF"/>
  <circle cx="37.6" cy="45" r="3" fill="#FFFFFF"/>
  <circle cx="32" cy="52" r="3" fill="#FFFFFF"/>
  <circle cx="26.4" cy="45" r="3" fill="#FFFFFF"/>
  <circle cx="17.2" cy="37.2" r="3" fill="#FFFFFF"/>
  <circle cx="14.5" cy="25.4" r="3" fill="#FFFFFF"/>
  <circle cx="19.9" cy="15.3" r="3" fill="#FFFFFF"/>
  
  <g opacity="0.12" stroke="#FFFFFF" stroke-width="1">
    <line x1="32" y1="12" x2="32" y2="25.82"/>
    <line x1="44.1" y1="15.3" x2="35.5" y2="28.2"/>
    <line x1="49.5" y1="25.4" x2="37.5" y2="31"/>
    <line x1="46.8" y1="37.2" x2="37.5" y2="35"/>
    <line x1="37.6" y1="45" x2="35" y2="37"/>
    <line x1="32" y1="52" x2="32" y2="38.18"/>
    <line x1="26.4" y1="45" x2="29" y2="37"/>
    <line x1="17.2" y1="37.2" x2="26.5" y2="35"/>
    <line x1="14.5" y1="25.4" x2="26.5" y2="31"/>
    <line x1="19.9" y1="15.3" x2="28.5" y2="28.2"/>
  </g>
</svg>
