<svg width="40" height="24" viewBox="0 0 40 24" fill="none" xmlns="http://www.w3.org/2000/svg">
<rect width="40" height="24" fill="#009639"/>
<path d="M20 12C20 5.373 15.523 0 10 0S0 5.373 0 12s4.477 12 10 12 10-5.373 10-12z" fill="#FEDD00"/>
<path d="M10 2C5.582 2 2 5.582 2 10s3.582 8 8 8 8-3.582 8-8-3.582-8-8-8z" fill="#012169"/>
<path d="M10 4C6.686 4 4 6.686 4 10s2.686 6 6 6 6-2.686 6-6-2.686-6-6-6z" fill="#FFFFFF"/>
<path d="M10 6C7.791 6 6 7.791 6 10s1.791 4 4 4 4-1.791 4-4-1.791-4-4-4z" fill="#FEDD00"/>
</svg>