<svg width="24" height="16" viewBox="0 0 24 16" xmlns="http://www.w3.org/2000/svg">
  <rect width="24" height="16" fill="#DE2910"/>
  <polygon points="6,4 7,6 6,8 5,6" fill="#FFDE00"/>
  <polygon points="8,3 9,5 8,7 7,5" fill="#FFDE00"/>
  <polygon points="10,2 11,4 10,6 9,4" fill="#FFDE00"/>
  <polygon points="12,1 13,3 12,5 11,3" fill="#FFDE00"/>
  <polygon points="14,2 15,4 14,6 13,4" fill="#FFDE00"/>
  <polygon points="16,3 17,5 16,7 15,5" fill="#FFDE00"/>
  <polygon points="18,4 19,6 18,8 17,6" fill="#FFDE00"/>
</svg>