<svg width="320" height="64" viewBox="0 0 320 64" fill="none" xmlns="http://www.w3.org/2000/svg">
  <!-- OPTION 2: Wordmark with modern H -->
  <path d="M10 12H22V28H38V12H50V52H38V36H22V52H10V12Z" fill="#6B1F2B"/>
  <circle cx="30" cy="32" r="5" fill="#C3A35E"/>
  
  <!-- A -->
  <path d="M75 52L85 12H95L105 52H97L95 44H85L83 52H75ZM86 38H94L90 20L86 38Z" fill="#6B1F2B"/>
  
  <!-- R -->
  <path d="M115 12H130C137 12 142 17 142 24C142 28 140 31 137 33L145 52H136L129 35H123V52H115V12ZM123 28H129C132 28 134 26 134 24C134 22 132 20 129 20H123V28Z" fill="#6B1F2B"/>
  
  <!-- V -->
  <path d="M155 12H163L175 40L187 12H195L179 52H171L155 12Z" fill="#6B1F2B"/>
  
  <!-- I -->
  <path d="M210 12H218V52H210V12Z" fill="#6B1F2B"/>
  
  <!-- C -->
  <path d="M235 20V44C240 44 245 39 245 32C245 25 240 20 235 20ZM227 12H235C245 12 253 20 253 32C253 44 245 52 235 52H227V12Z" fill="#6B1F2B"/>
  
  <!-- S -->
  <path d="M270 20C275 20 278 23 278 26H286C286 19 280 12 270 12C260 12 254 19 254 26C254 32 258 35 266 37C272 38 274 40 274 43C274 46 272 48 268 48C263 48 260 45 260 42H252C252 49 258 56 268 56C278 56 284 49 284 43C284 37 280 34 272 32C266 31 264 29 264 26C264 23 266 20 270 20Z" fill="#6B1F2B"/>
</svg>
