<svg width="64" height="64" viewBox="0 0 64 64" fill="none" xmlns="http://www.w3.org/2000/svg">
  <!-- HARVICS: White variant for dark backgrounds -->
  
  <circle cx="32" cy="32" r="8" fill="#C3A35E" opacity="0.95"/>
  <circle cx="32" cy="32" r="4" fill="#FFFFFF"/>
  
  <path d="M32 4L32 16L28 12L32 16L36 12" stroke="#FFFFFF" stroke-width="2" stroke-linecap="round" stroke-linejoin="round"/>
  <path d="M50 14L42 22L44 18L42 22L46 24" stroke="#FFFFFF" stroke-width="2" stroke-linecap="round" stroke-linejoin="round"/>
  <path d="M60 32L48 32L52 28L48 32L52 36" stroke="#FFFFFF" stroke-width="2" stroke-linecap="round" stroke-linejoin="round"/>
  <path d="M50 50L42 42L46 40L42 42L44 46" stroke="#FFFFFF" stroke-width="2" stroke-linecap="round" stroke-linejoin="round"/>
  <path d="M32 60L32 48L28 52L32 48L36 52" stroke="#FFFFFF" stroke-width="2" stroke-linecap="round" stroke-linejoin="round"/>
  <path d="M14 50L22 42L18 44L22 42L20 46" stroke="#FFFFFF" stroke-width="2" stroke-linecap="round" stroke-linejoin="round"/>
  <path d="M4 32L16 32L12 28L16 32L12 36" stroke="#FFFFFF" stroke-width="2" stroke-linecap="round" stroke-linejoin="round"/>
  <path d="M14 14L22 22L20 18L22 22L18 24" stroke="#FFFFFF" stroke-width="2" stroke-linecap="round" stroke-linejoin="round"/>
  
  <circle cx="32" cy="32" r="22" stroke="#C3A35E" stroke-width="1" opacity="0.4" fill="none"/>
</svg>
