<svg width="320" height="64" viewBox="0 0 320 64" fill="none" xmlns="http://www.w3.org/2000/svg">
  <!-- HARVICS Wordmark - White for dark backgrounds -->
  <path d="M20 12V52M20 12H28V52H20M60 12V52M60 12H68V52H60M28 28H60M28 28V36H60V28" fill="#FFFFFF"/>
  
  <!-- A -->
  <path d="M95 52L105 12H115L125 52H117L115 44H105L103 52H95ZM106 38H114L110 20L106 38Z" fill="#FFFFFF"/>
  
  <!-- R -->
  <path d="M135 12H150C157 12 162 17 162 24C162 28 160 31 157 33L165 52H156L149 35H143V52H135V12ZM143 28H149C152 28 154 26 154 24C154 22 152 20 149 20H143V28Z" fill="#FFFFFF"/>
  
  <!-- V -->
  <path d="M175 12H183L195 40L207 12H215L199 52H191L175 12Z" fill="#FFFFFF"/>
  
  <!-- I -->
  <path d="M230 12H238V52H230V12Z" fill="#FFFFFF"/>
  
  <!-- C -->
  <path d="M255 20V44C260 44 265 39 265 32C265 25 260 20 255 20ZM247 12H255C265 12 273 20 273 32C273 44 265 52 255 52H247V12Z" fill="#FFFFFF"/>
  
  <!-- S -->
  <path d="M290 20C295 20 298 23 298 26H306C306 19 300 12 290 12C280 12 274 19 274 26C274 32 278 35 286 37C292 38 294 40 294 43C294 46 292 48 288 48C283 48 280 45 280 42H272C272 49 278 56 288 56C298 56 304 49 304 43C304 37 300 34 292 32C286 31 284 29 284 26C284 23 286 20 290 20Z" fill="#FFFFFF"/>
  
  <!-- Gold accent line -->
  <rect x="20" y="58" width="280" height="2" fill="#C3A35E"/>
</svg>
